<svg width="68" height="96" viewBox="0 0 68 96" fill="none" xmlns="http://www.w3.org/2000/svg">
<rect width="68" height="96" rx="34" transform="matrix(-1 0 0 1 68 0)" fill="#FFE7D5"/>
<g style="mix-blend-mode:multiply">
<rect width="53" height="56" transform="translate(7 20)" fill="white"/>
<path d="M33.4998 24.6665C24.9536 24.6665 18.0415 31.9698 18.0415 40.9998C18.0415 53.2498 33.4998 71.3332 33.4998 71.3332C33.4998 71.3332 48.9582 53.2498 48.9582 40.9998C48.9582 31.9698 42.0461 24.6665 33.4998 24.6665ZM22.4582 40.9998C22.4582 34.5598 27.4048 29.3332 33.4998 29.3332C39.5948 29.3332 44.5415 34.5598 44.5415 40.9998C44.5415 47.7198 38.1815 57.7765 33.4998 64.0532C28.9065 57.8232 22.4582 47.6498 22.4582 40.9998Z" fill="#5A371C"/>
<path d="M33.4998 46.8332C36.5489 46.8332 39.0207 44.2215 39.0207 40.9998C39.0207 37.7782 36.5489 35.1665 33.4998 35.1665C30.4508 35.1665 27.979 37.7782 27.979 40.9998C27.979 44.2215 30.4508 46.8332 33.4998 46.8332Z" fill="#5A371C"/>
</g>
</svg>
