<svg width="68" height="96" viewBox="0 0 68 96" fill="none" xmlns="http://www.w3.org/2000/svg">
<rect width="68" height="96" rx="34" transform="matrix(-1 0 0 1 68 0)" fill="#FFE7D5"/>
<path d="M23.535 34.5833C23.65 36.2892 23.9375 37.9567 24.3975 39.5475L22.0975 41.8475C21.3117 39.5475 20.8133 37.1133 20.6408 34.5833H23.535ZM42.4333 57.6217C44.0625 58.0817 45.73 58.3692 47.4167 58.4842V61.34C44.8867 61.1675 42.4525 60.6692 40.1333 59.9025L42.4333 57.6217ZM25.375 30.75H18.6667C17.6125 30.75 16.75 31.6125 16.75 32.6667C16.75 50.6642 31.3358 65.25 49.3333 65.25C50.3875 65.25 51.25 64.3875 51.25 63.3333V56.6442C51.25 55.59 50.3875 54.7275 49.3333 54.7275C46.9567 54.7275 44.6375 54.3442 42.4908 53.635C42.2992 53.5583 42.0883 53.5392 41.8967 53.5392C41.3983 53.5392 40.9192 53.7308 40.5358 54.095L36.3192 58.3117C30.895 55.5325 26.4483 51.105 23.6883 45.6808L27.905 41.4642C28.4417 40.9275 28.595 40.18 28.3842 39.5092C27.675 37.3625 27.2917 35.0625 27.2917 32.6667C27.2917 31.6125 26.4292 30.75 25.375 30.75Z" fill="#5A371C"/>
</svg>
